<svg width="24" height="25" viewBox="0 0 24 25" fill="none" xmlns="http://www.w3.org/2000/svg">
<path d="M22.5362 12.002L17.2945 2.28902C16.7421 1.2678 15.4771 0.894096 14.4674 1.45396L4.87376 6.77519C4.44179 7.021 4.03889 7.45028 3.85538 8.0585L1.28085 16.9536C0.972428 18.0173 1.57564 19.1329 2.62852 19.4456L17.7523 23.7248C18.8043 24.0366 19.9081 23.4257 20.2169 22.3606L22.7188 13.6386C22.8814 13.1267 22.7901 12.495 22.5362 12.002Z" fill="#00A0E2"/>
<path d="M10.7795 13.8719C10.7795 13.8719 9.11617 10.6451 8.04102 10.6451C7.20752 10.6458 7.1353 11.5217 7.13757 13.6324C7.14092 15.744 7.25522 16.5664 8.0383 16.5664C9.10254 16.5657 10.7795 13.8719 10.7795 13.8719ZM12.918 11.1797C13.7701 9.95916 14.5405 8.75086 15.9813 8.75086C17.5765 8.75012 18.4409 10.0785 18.4464 11.1964C18.4464 11.2077 18.4396 18.3531 18.4396 18.3531H16.6481L16.6404 11.5787C16.6404 10.6483 15.8886 10.6501 15.8782 10.6501C15.2722 10.6501 14.1585 12.1616 12.9189 13.8398V18.3558L11.1075 18.3577L11.1052 16.2673C11.1052 16.2673 9.90744 18.3577 8.11417 18.3599C6.07971 18.3603 5.38929 16.9686 5.3843 13.6347C5.38095 10.4585 5.83397 8.75903 8.0147 8.75723C9.67352 8.75575 11.0984 11.1603 11.0984 11.1603L11.0988 9.63747L12.9189 7.19873C12.9189 7.19873 12.911 11.1891 12.918 11.1797Z" fill="white"/>
</svg>
