<svg width="24" height="24" viewBox="0 0 24 24" fill="none" xmlns="http://www.w3.org/2000/svg">
<g clip-path="url(#clip0_1128_372)">
<mask id="mask0_1128_372" style="mask-type:luminance" maskUnits="userSpaceOnUse" x="0" y="0" width="24" height="24">
<path d="M24 0H0V24H24V0Z" fill="white"/>
</mask>
<g mask="url(#mask0_1128_372)">
<path d="M19.106 24H4.89396C2.1925 24 0 21.8075 0 19.106V4.89396C0 2.1925 2.1925 0 4.89396 0H19.0865C21.7879 0 23.9804 2.1925 23.9804 4.89396V19.0865C24 21.8075 21.8075 24 19.106 24Z" fill="#ED1C66"/>
</g>
<mask id="mask1_1128_372" style="mask-type:luminance" maskUnits="userSpaceOnUse" x="0" y="0" width="24" height="24">
<path d="M24 0H0V24H24V0Z" fill="white"/>
</mask>
<g mask="url(#mask1_1128_372)">
<path d="M7.5563 13.1158C5.08974 13.1158 3.07343 11.0995 3.07343 8.63297C3.07343 6.16642 5.08974 4.16968 7.5563 4.16968C10.0229 4.16968 12.0392 6.18599 12.0392 8.65255C12.0392 11.1191 10.0229 13.1158 7.5563 13.1158ZM7.5563 5.63787C5.91192 5.63787 4.56119 6.9886 4.56119 8.63297C4.56119 10.2773 5.91192 11.6281 7.5563 11.6281C9.20067 11.6281 10.5514 10.2773 10.5514 8.63297C10.5514 6.9886 9.20067 5.63787 7.5563 5.63787Z" fill="white"/>
</g>
<mask id="mask2_1128_372" style="mask-type:luminance" maskUnits="userSpaceOnUse" x="0" y="0" width="24" height="24">
<path d="M24 0H0V24H24V0Z" fill="white"/>
</mask>
<g mask="url(#mask2_1128_372)">
<path d="M16.6982 13.1157C16.4046 13.1157 16.1501 12.9396 16.0326 12.6851L12.5481 5.22668C12.3719 4.85474 12.5286 4.40449 12.9005 4.22831C13.2724 4.05213 13.7227 4.20873 13.8989 4.58067L16.6982 10.5905L19.4976 4.58067C19.6737 4.20873 20.124 4.05213 20.4959 4.22831C20.8679 4.40449 21.0245 4.85474 20.8483 5.22668L17.3834 12.6851C17.2463 12.9591 16.9919 13.1157 16.6982 13.1157Z" fill="white"/>
</g>
<mask id="mask3_1128_372" style="mask-type:luminance" maskUnits="userSpaceOnUse" x="0" y="0" width="24" height="24">
<path d="M24 0H0V24H24V0Z" fill="white"/>
</mask>
<g mask="url(#mask3_1128_372)">
<path d="M7.08646 17.3443C7.08646 18.0099 6.57749 18.5385 5.93149 18.5385C5.28548 18.5385 4.77651 18.0099 4.77651 17.3443C4.77651 16.6787 5.28548 16.1502 5.93149 16.1502C6.57749 16.1502 7.08646 16.6787 7.08646 17.3443ZM6.04894 15.2693C5.55954 15.2693 5.1093 15.465 4.77651 15.7978V15.5629C4.77651 15.5238 4.77651 15.4846 4.75693 15.465C4.73736 15.4455 4.71778 15.4063 4.67863 15.4063C4.65906 15.3867 4.6199 15.3867 4.58075 15.3672C4.5416 15.3672 4.52202 15.3672 4.48287 15.3672H4.15008C4.11093 15.3672 4.07178 15.3672 4.0522 15.3672C4.01305 15.3672 3.99348 15.3867 3.95432 15.4063C3.93475 15.4259 3.8956 15.4455 3.87602 15.465C3.85645 15.4846 3.85645 15.5238 3.85645 15.5629V15.7783V20.4373C3.85645 20.4765 3.85645 20.5156 3.87602 20.5352C3.8956 20.5548 3.91517 20.5939 3.95432 20.5939C3.9739 20.6135 4.01305 20.6135 4.0522 20.6331C4.09136 20.6331 4.11093 20.6331 4.15008 20.6331H4.48287C4.52202 20.6331 4.56118 20.6331 4.58075 20.6331C4.6199 20.6331 4.63948 20.6135 4.67863 20.5939C4.69821 20.5743 4.73736 20.5548 4.75693 20.5352C4.77651 20.5156 4.77651 20.4765 4.77651 20.4373V18.9104C5.1093 19.2432 5.55954 19.4389 6.04894 19.4389C7.10604 19.4389 7.96738 18.5189 7.96738 17.3639C7.96738 16.2089 7.10604 15.2693 6.04894 15.2693Z" fill="white"/>
</g>
<mask id="mask4_1128_372" style="mask-type:luminance" maskUnits="userSpaceOnUse" x="0" y="0" width="24" height="24">
<path d="M24 0H0V24H24V0Z" fill="white"/>
</mask>
<g mask="url(#mask4_1128_372)">
<path d="M10.4535 16.15C11.0995 16.15 11.6085 16.6785 11.6085 17.3441C11.6085 18.0097 11.0995 18.5383 10.4535 18.5383C9.80749 18.5383 9.29852 18.0097 9.29852 17.3441C9.29852 16.6785 9.80749 16.15 10.4535 16.15ZM8.4176 17.3441C8.4176 18.4795 9.27894 19.4192 10.336 19.4192C10.8254 19.4192 11.2757 19.2234 11.6085 18.8906V19.1451C11.6085 19.1843 11.6085 19.2234 11.628 19.243C11.6476 19.2626 11.6672 19.3017 11.7063 19.3017C11.7259 19.3213 11.7651 19.3213 11.8042 19.3409C11.8434 19.3409 11.863 19.3409 11.9021 19.3409H12.2349C12.274 19.3409 12.3132 19.3409 12.3328 19.3409C12.3719 19.3409 12.3915 19.3213 12.4307 19.3017C12.4502 19.2821 12.4894 19.2626 12.509 19.243C12.5285 19.2234 12.5285 19.1843 12.5285 19.1451V15.7585V15.5431C12.5285 15.504 12.5285 15.4648 12.509 15.4453C12.4894 15.4257 12.4698 15.3865 12.4307 15.3865C12.4111 15.367 12.3719 15.367 12.3328 15.3474C12.2936 15.3474 12.274 15.3474 12.2349 15.3474H11.9021C11.863 15.3474 11.8238 15.3474 11.8042 15.3474C11.7651 15.3474 11.7455 15.367 11.7063 15.3865C11.6868 15.4061 11.6476 15.4257 11.628 15.4453C11.6085 15.4648 11.6085 15.504 11.6085 15.5431V15.7781C11.2757 15.4453 10.8254 15.2495 10.336 15.2495C9.27894 15.2691 8.4176 16.2087 8.4176 17.3441Z" fill="white"/>
</g>
<mask id="mask5_1128_372" style="mask-type:luminance" maskUnits="userSpaceOnUse" x="0" y="0" width="24" height="24">
<path d="M24 0H0V24H24V0Z" fill="white"/>
</mask>
<g mask="url(#mask5_1128_372)">
<path d="M16.5416 15.6411C16.5416 15.4649 16.4046 15.3475 16.248 15.3279H15.8565C15.7977 15.3279 15.7586 15.3475 15.7194 15.367C15.6803 15.3866 15.6607 15.4258 15.6411 15.4845L14.7406 17.9315C14.7211 17.8727 13.938 15.7585 13.8989 15.6411L13.8401 15.5041C13.8401 15.4845 13.8206 15.4649 13.8206 15.4649C13.801 15.4453 13.7814 15.4062 13.7423 15.4062C13.7227 15.3866 13.6835 15.3866 13.6444 15.367C13.6052 15.367 13.5857 15.367 13.5465 15.367H13.2137H13.1746C13.1354 15.367 13.0963 15.367 13.0767 15.367C13.0375 15.367 13.018 15.3866 12.9788 15.4062C12.9592 15.4258 12.9201 15.4453 12.9005 15.4649C12.8809 15.4845 12.8809 15.5236 12.8809 15.5628C12.8809 15.5628 12.8809 15.5824 12.8809 15.6019L14.2904 18.9886L13.7423 20.3785C13.7423 20.3785 13.7227 20.398 13.7227 20.4372C13.7227 20.4568 13.7227 20.4959 13.7227 20.4959C13.7227 20.5351 13.7423 20.5546 13.7618 20.5938C13.7814 20.6134 13.8401 20.6329 13.8989 20.6329H14.4861C14.5449 20.6329 14.584 20.6134 14.6232 20.5938C14.6623 20.5742 14.6819 20.5351 14.7015 20.4763L16.522 15.7585C16.5416 15.7194 16.5416 15.6802 16.5416 15.6411Z" fill="white"/>
</g>
<mask id="mask6_1128_372" style="mask-type:luminance" maskUnits="userSpaceOnUse" x="0" y="0" width="24" height="24">
<path d="M24 0H0V24H24V0Z" fill="white"/>
</mask>
<g mask="url(#mask6_1128_372)">
<path d="M18.4209 15.3083C18.3034 15.1909 18.1076 15.1909 17.9902 15.3083C17.8727 15.4258 17.8727 15.6215 17.9902 15.739C18.6753 16.4241 18.6753 17.5204 17.9902 18.2055C17.8727 18.323 17.8727 18.5187 17.9902 18.6362C18.1076 18.7537 18.3034 18.7537 18.4209 18.6362C19.3409 17.7161 19.3409 16.2088 18.4209 15.3083Z" fill="white"/>
</g>
<mask id="mask7_1128_372" style="mask-type:luminance" maskUnits="userSpaceOnUse" x="0" y="0" width="24" height="24">
<path d="M24 0H0V24H24V0Z" fill="white"/>
</mask>
<g mask="url(#mask7_1128_372)">
<path d="M19.7129 14.0163C19.5955 13.8989 19.3997 13.8989 19.2822 14.0163C19.1648 14.1338 19.1648 14.3295 19.2822 14.447C20.6721 15.8369 20.6721 18.1077 19.2822 19.4976C19.1648 19.615 19.1648 19.8108 19.2822 19.9282C19.3997 20.0457 19.5955 20.0457 19.7129 19.9282C21.3377 18.2839 21.3377 15.6411 19.7129 14.0163Z" fill="white"/>
</g>
</g>
<defs>
<clipPath id="clip0_1128_372">
<rect width="24" height="24" fill="white"/>
</clipPath>
</defs>
</svg>
