<svg width="24" height="24" viewBox="0 0 24 24" fill="none" xmlns="http://www.w3.org/2000/svg">
  <path fill-rule="evenodd" clip-rule="evenodd"
    d="M9.3185 0L2.045 1.905L0.0405 9.2195L2.5475 11.7935L0 14.325L1.8865 21.6715L9.1285 23.695L11.6765 21.163L14.1835 23.7365L21.457 21.8315L23.461 14.5165L20.9545 11.9435L23.502 9.412L21.6155 2.065L14.3725 0.0415L11.8255 2.573L9.3185 0ZM4.855 3.312L8.6865 2.308L10.362 4.028L7.9185 6.456L4.855 3.312ZM13.266 4.051L14.9685 2.3595L18.7835 3.4255L15.67 6.519L13.266 4.051ZM2.336 8.619L3.3915 4.7665L6.454 7.9105L4.011 10.3385L2.336 8.619ZM17.1095 7.9975L20.223 4.903L21.216 8.773L19.514 10.465L17.1095 7.9975ZM9.3585 7.934L11.802 5.506L14.2055 7.974L11.7625 10.402L9.3585 7.934ZM5.4515 11.8165L7.8945 9.3885L10.2995 11.8565L7.8555 14.2845L5.4515 11.8165ZM13.203 11.88L15.646 9.452L18.05 11.92L15.6065 14.348L13.203 11.88ZM2.285 14.9635L3.988 13.271L6.3915 15.7395L3.279 18.8325L2.285 14.9635ZM9.2955 15.7625L11.739 13.3345L14.143 15.8025L11.7 18.2305L9.2955 15.7625ZM17.0465 15.8265L19.49 13.3985L21.1655 15.118L20.1105 18.9705L17.0465 15.8265ZM4.7185 20.3115L7.8315 17.217L10.2365 19.685L8.5335 21.3775L4.7185 20.3115ZM13.14 19.7085L15.583 17.2805L18.646 20.425L14.815 21.4285L13.14 19.7085Z"
    fill="currentColor" />
</svg>