<svg width="25" height="24" viewBox="0 0 25 24" fill="none" xmlns="http://www.w3.org/2000/svg">
  <path
    d="M20.9805 7H4.98047C3.8759 7 2.98047 7.89543 2.98047 9V19C2.98047 20.1046 3.8759 21 4.98047 21H20.9805C22.085 21 22.9805 20.1046 22.9805 19V9C22.9805 7.89543 22.085 7 20.9805 7Z"
    stroke="currentColor" stroke-width="2" stroke-linecap="round" stroke-linejoin="round" />
  <path
    d="M16.9805 6.5V7V5C16.9805 4.46957 16.7698 3.96086 16.3947 3.58579C16.0196 3.21071 15.5109 3 14.9805 3H10.9805C10.45 3 9.94133 3.21071 9.56626 3.58579C9.19118 3.96086 8.98047 4.46957 8.98047 5V7"
    stroke="currentColor" stroke-width="2" stroke-linecap="round" stroke-linejoin="round" />
</svg>